<svg width="30" height="35" viewBox="0 0 30 35" fill="none" xmlns="http://www.w3.org/2000/svg">
<path fill-rule="evenodd" clip-rule="evenodd" d="M18.75 1.25007C18.75 0.720942 18.4168 0.249141 17.9182 0.0721082C17.4196 -0.104925 16.8635 0.0511678 16.5298 0.461826L0.279873 20.4618C-0.0242142 20.836 -0.085904 21.3518 0.121348 21.7872C0.328572 22.2226 0.767796 22.5 1.25002 22.5H11.25V33.75C11.25 34.279 11.5831 34.751 12.0818 34.928C12.5804 35.105 13.1365 34.949 13.4701 34.5382L29.7202 14.5383C30.0242 14.164 30.0859 13.6482 29.8787 13.2128C29.6714 12.7774 29.2322 12.5 28.7499 12.5H18.75V1.25007Z" fill="white"/>
</svg>
